# xmcd CD database file
#
# Track frame offsets:
#	150
#	25467
#	40072
#
# Disc length: 870 seconds
#
# Revision: 0
# Processed by: cddbd v1.5.1PL0 Copyright (c) Steve Scherf et al.
# Submitted via: CDex 1.51
#
DISCID=1d036403
DTITLE=小森まなみ - I Love You
DYEAR=1998
DGENRE=Pop
TTITLE0=I Love You
TTITLE1=ある朝 突然（詩朗読）
TTITLE2=I Lovr You（オリジナル・カラオケ）
EXTD=YEAR: 1998
EXTT0=
EXTT1=
EXTT2=
PLAYORDER=
